<svg xmlns="http://www.w3.org/2000/svg" viewBox="0 0 64 64" role="img" aria-labelledby="title">
  <title>Sacred Homes</title>
  <circle cx="32" cy="32" r="30" fill="#ffffff"/>
  <circle cx="32" cy="32" r="27" fill="#1F8A84"/>
  <g fill="none" stroke="#F4EBD7" stroke-linecap="round" stroke-linejoin="round">
    <path d="M17 39V25l15-11 15 11v14" stroke-width="2.2"/>
    <path d="M32 39V26.5" stroke-width="1.9"/>
    <path d="M32 22.2c-2.5 2.7-3.8 5.5-3.8 8.3 0 1.4 1.3 2.7 3.8 4 2.5-1.3 3.8-2.6 3.8-4 0-2.8-1.3-5.6-3.8-8.3Z" stroke-width="1.9"/>
    <path d="M28 26.5c-3.1.7-5.1 2.2-5.8 4.4-.4 1.6.1 3.1 1.5 4.6 2.6.2 4.4-.4 5.5-1.8 1.1-1.4.7-4-1.2-7.2Z" stroke-width="1.8"/>
    <path d="M36 26.5c3.1.7 5.1 2.2 5.8 4.4.4 1.6-.1 3.1-1.5 4.6-2.6.2-4.4-.4-5.5-1.8-1.1-1.4-.7-4 1.2-7.2Z" stroke-width="1.8"/>
    <path d="M24.8 30.8c-3-.8-5.4-.4-7.2 1.1-1.2 1.1-1.5 2.6-.9 4.5 2.1 1.3 4.1 1.4 6 .5 1.9-1 2.6-3 2.1-6.1Z" stroke-width="1.8"/>
    <path d="M39.2 30.8c3-.8 5.4-.4 7.2 1.1 1.2 1.1 1.5 2.6.9 4.5-2.1 1.3-4.1 1.4-6 .5-1.9-1-2.6-3-2.1-6.1Z" stroke-width="1.8"/>
  </g>
</svg>
